inDegrees=no
num_controls=7
num_derivatives=13
num_iterations=107
num_multipliers=7
num_parameters=0
num_slacks=7
num_states=26
objective=0.431181
objective_accelerations=0.049789
objective_balance=0.006707
objective_effort=0.030994
objective_height=0.342519
objective_ligament=0.001172
solver_duration=1362.156077
status=Solve_Succeeded
success=true
DataType=double
version=3
OpenSimVersion=4.5
endheader
time	/jointset/ground_pelvis/pelvis_tilt/value	/jointset/ground_pelvis/pelvis_tx/value	/jointset/ground_pelvis/pelvis_ty/value	/jointset/hip_l/hip_flexion_l/value	/jointset/hip_l/hip_adduction_l/value	/jointset/hip_l/hip_rotation_l/value	/jointset/back/lumbar_extension/value	/jointset/patellofemoral_l/patellar_flexion_l/value	/jointset/knee_l/knee_flexion_l/value	/jointset/knee_l/knee_adduction_l/value	/jointset/knee_l/knee_rotation_l/value	/jointset/ankle_l/ankle_angle_l/value	/jointset/subtalar_l/subtalar_angle_l/value	/jointset/ground_pelvis/pelvis_tilt/speed	/jointset/ground_pelvis/pelvis_tx/speed	/jointset/ground_pelvis/pelvis_ty/speed	/jointset/hip_l/hip_flexion_l/speed	/jointset/hip_l/hip_adduction_l/speed	/jointset/hip_l/hip_rotation_l/speed	/jointset/back/lumbar_extension/speed	/jointset/patellofemoral_l/patellar_flexion_l/speed	/jointset/knee_l/knee_flexion_l/speed	/jointset/knee_l/knee_adduction_l/speed	/jointset/knee_l/knee_rotation_l/speed	/jointset/ankle_l/ankle_angle_l/speed	/jointset/subtalar_l/subtalar_angle_l/speed	/forceset/tau_hip_flexion_l	/forceset/tau_hip_adduction_l	/forceset/tau_hip_rotation_l	/forceset/tau_knee_flexion_l	/forceset/tau_ankle_angle_l	/forceset/tau_subtalar_angle_l	/forceset/tau_lumbar_extension	lambda_cid13_p0	lambda_cid13_p1	lambda_cid13_p2	lambda_cid13_p3	lambda_cid13_p4	lambda_cid13_p5	lambda_cid14_p0	/jointset/ground_pelvis/pelvis_tilt/accel	/jointset/ground_pelvis/pelvis_tx/accel	/jointset/ground_pelvis/pelvis_ty/accel	/jointset/hip_l/hip_flexion_l/accel	/jointset/hip_l/hip_adduction_l/accel	/jointset/hip_l/hip_rotation_l/accel	/jointset/back/lumbar_extension/accel	/jointset/patellofemoral_l/patellar_flexion_l/accel	/jointset/knee_l/knee_flexion_l/accel	/jointset/knee_l/knee_adduction_l/accel	/jointset/knee_l/knee_rotation_l/accel	/jointset/ankle_l/ankle_angle_l/accel	/jointset/subtalar_l/subtalar_angle_l/accel	gamma_cid13_p0	gamma_cid13_p1	gamma_cid13_p2	gamma_cid13_p3	gamma_cid13_p4	gamma_cid13_p5	gamma_cid14_p0
1	-0.4451070751245832	-0.05124058357013807	0.5935014885196739	1.769622543126771	-0.2726320910446112	0.2234019785978254	-0.4363123182422967	1.424335091277812	1.424335091277901	-0.1742929989769504	0.1745151210409731	0.3172321688296074	0.05066727141800675	-0.01106680407859649	0.0008261670548578357	-0.004328714128151328	0.0194027026181039	0.001154373583172604	0.004286376728311057	0.0003855328716073413	0.01104489622625403	0.01104489622625373	-4.476187698363229e-05	-7.509549975514655e-05	0.003353843963079019	0.002406738613437373	-0.3302531164042579	0.009953587788724585	-0.0125115813905054	-0.3682546217016187	0.04300722388684197	0.01526369919446828	0.2951691667532303	-32.31895319145813	0.5492310246176247	-2.225548589184226	18.24126275886065	-728.0216362648912	-52.982254260048	-0.03934860382191726	1.044778887159218	-0.04887761742828072	1.785933078076306	-5.597013350641403	-0.5896085563930762	-2.058212837229997	-0.02332520833746737	-5.527776011644769	-5.527776011644892	-0.07260976409434898	0.01967292299175218	-1.279749588923621	-1.105086638711842	6.682706765126036e-10	4.265396153791368e-09	-1.233675680821578e-08	-9.590837353455772e-10	2.833980969840622e-09	-3.361662210364152e-09	2.13938850129622e-09
1.01	-0.4451657780927976	-0.05123474061809655	0.5935474123959755	1.769537160517169	-0.2726491593332406	0.2233399853876179	-0.4363093425259321	1.424169555774292	1.424169555774308	-0.1742938877970956	0.1745144070469386	0.3172021111713565	0.0506374166139931	-0.0006639905950177863	0.0003467583077191983	0.01351247049796505	-0.03648827768683674	-0.004561875802919989	-0.01667669084143153	0.0001937338811737538	-0.04414528044835567	-0.04414528044835876	-0.0001319613901191278	-7.516999875751243e-05	-0.009358390981982859	-0.00836602617031228	-0.3300624211323533	0.009956441387567816	-0.0125366644822831	-0.3683021979099229	0.04336666479910972	0.01524621462819228	0.2950363145065719	-32.19089216778933	0.5341281647824088	-2.222827823550657	18.06568262876921	-727.8771955077704	-52.99281140727705	-0.03935694843413953	1.039502851682658	-0.04682074111609492	1.783056677711664	-5.586498141650805	-0.5617161938694905	-2.114109934774085	-0.01948872239282166	-5.513629569843848	-5.513629569844163	0.02337829470346938	-0.01097788638578964	-1.265911702774486	-1.061626014192055	-1.759329727503864e-09	2.014041566349223e-09	4.35244447228509e-08	7.509938300573368e-09	-8.10744451308187e-09	3.594999482925889e-08	-7.17212007327124e-09
1.02	-0.445120158871632	-0.05123356140107826	0.5937717172231046	1.768892596550271	-0.2727232067285612	0.2230686102581281	-0.4363087610950535	1.423452320289131	1.423452320289075	-0.1742956179444452	0.1745134662578982	0.3170451409125595	0.05050018323894492	0.009797633797579107	-0.0001065799497918435	0.03134747603737623	-0.09243356884099276	-0.0102414477550993	-0.03759000712828165	-9.332422911871756e-05	-0.09929510010195697	-0.09929510010196149	-0.0002130273181890796	-0.0001204544993427732	-0.02202867614612536	-0.01906897559348275	-0.3298717258604479	0.009959294986415759	-0.01256174757406473	-0.3683497741182269	0.04372610571137862	0.01522873006192323	0.2949034622599138	-32.07131445047131	0.5216817141845035	-2.221868484918155	17.94391140607328	-727.8393326799415	-52.95184370406942	-0.03935917215574918	1.056541068962853	-0.04366351950276046	1.784697260735267	-5.607875520484479	-0.5822730696104218	-2.048262580651505	-0.04237703230914126	-5.519704607443085	-5.519704607442939	-0.07138304708124227	0.01063092267517755	-1.271359632739744	-1.091123566596007	-5.389884922753052e-09	-7.552409299873043e-09	9.834348560573418e-08	1.530935392938925e-08	-1.946313706028212e-08	6.9765001299111e-08	-1.709548613210273e-08
1.03	-0.444969698079853	-0.05123674665278553	0.5941742913594951	1.767688436012958	-0.2728539393859178	0.222588310127684	-0.4363112285530366	1.422183794240494	1.422183794240459	-0.1742982193731927	0.1745120913258554	0.3167615848333362	0.05025617080052425	0.02029786887755128	-0.0005222737426130488	0.04916146090621513	-0.148395478546846	-0.01590605016965419	-0.0584667865698963	-0.0003867111613954272	-0.1544029600556662	-0.1544029600556724	-0.0003142163291876657	-0.0001376208282713409	-0.03468471111466667	-0.02973145593235572	-0.3296656540148513	0.01000199472607275	-0.01264636771337142	-0.3681491362594784	0.04409642015217548	0.01529263874780198	0.2948151749079241	-31.93170135910909	0.4585958425830934	-2.199377318039347	17.74389586254922	-727.6485691826442	-52.95101650907731	-0.03938419120534521	1.04726731254384	-0.03928814419858957	1.778859316325551	-5.589889564474582	-0.5587213579545576	-2.106922071719607	-0.02080109226053309	-5.505248788668337	-5.505248788668663	0.01945711843579542	-0.005388819402869316	-1.263048660544269	-1.053517594249879	-9.032715166892376e-09	-1.719350400567474e-08	1.53151892196289e-07	2.31019368397653e-08	-3.0823056822424e-08	1.03523919497843e-07	-2.702509563465121e-08
1.04	-0.444714134420268	-0.05124384200942636	0.5947548273878474	1.765924748204825	-0.2730413515735342	0.2218993349136639	-0.4363162261940642	1.420364405172452	1.420364405172434	-0.1743020439027421	0.174511045048783	0.3163514037581008	0.04990559209337154	0.03081820735870094	-0.0008886009365008672	0.06693985442974948	-0.2043390230062514	-0.02157735380727194	-0.07932502384363734	-0.0005993608366152965	-0.2094677039827157	-0.209467703982724	-0.0004576474783871467	-5.472350624055285e-05	-0.04735367534852573	-0.04038222933990566	-0.3294595821692275	0.01004469446573766	-0.01273098785265498	-0.3679484984007315	0.0444667345929697	0.01535654743369091	0.2947268875559625	-31.80062520002535	0.3981493388137599	-2.178614690225499	17.59729710421743	-727.5649162485307	-52.89916080313488	-0.03940307329053646	1.060561749198347	-0.03379019971608281	1.777578991674352	-5.60420247119491	-0.5836133142229918	-2.04455414707678	-0.02622958089763007	-5.511081402111154	-5.511081402111088	-0.07983147472142037	0.03064365286704053	-1.273945485803295	-1.088782180331395	-1.195031891566355e-08	-2.256149668030261e-08	2.044713777713043e-07	3.078625348748693e-08	-4.14204130485845e-08	1.359153564528357e-07	-3.577048498166196e-08
1.05	-0.4443533298997362	-0.05125432564155509	0.5955129232239241	1.763601839027974	-0.2732854135877614	0.2210018830865902	-0.4363226947391807	1.417994589522306	1.417994589522206	-0.174307420668765	0.1745112583469039	0.3158144105555767	0.04944871156197914	0.04133962530743133	-0.001197130669594781	0.08466890018968677	-0.2602278865603	-0.02722640826036393	-0.1001637932421999	-0.0006555466014285896	-0.2644882022784701	-0.264488202278471	-0.0006127797384868232	0.0001075311077470767	-0.06005297020663562	-0.05097711444569881	-0.3292210076599345	0.01014625069978493	-0.01287384412038477	-0.367502459083673	0.04483258061985066	0.01550657085144271	0.2946619726160487	-31.65437572687324	0.2853647757276566	-2.135478956008591	17.38701514940266	-727.3204735354386	-52.89511100615366	-0.03944913858172284	1.047472693176869	-0.02772736613991131	1.768994973179146	-5.578989209246263	-0.5542932104702314	-2.103341158552032	0.01050716504787211	-5.496441494373977	-5.496441494373033	0.01736481931732439	0.01048021715667188	-1.269117980315249	-1.042353758790451	-1.484525933645447e-08	-2.779595491645631e-08	2.556818345645839e-07	3.846718681450061e-08	-5.199393916424559e-08	1.682640596189616e-07	-4.447886744881218e-08
1.06	-0.4438874030246237	-0.05126756317222152	0.5964479950386053	1.760720489033239	-0.2735857144864424	0.2198960830010689	-0.436328561094205	1.415074787398989	1.415074787398805	-0.1743142049731952	0.1745133869614391	0.3151501851055714	0.04888637976291146	0.05184267827482039	-0.001439380644038818	0.1023350501506524	-0.316027186583805	-0.03282513069817349	-0.1209946755330039	-0.0004789227934022937	-0.3194649986168809	-0.3194649986168798	-0.0007391551597232943	0.0003283397814160897	-0.07280012484476207	-0.06147248287497882	-0.3289824331506279	0.01024780693383465	-0.01301670038811144	-0.3670564197666152	0.04519842664672988	0.01565659426919745	0.2945970576761491	-31.51684738437405	0.1752302504161017	-2.094048832719985	17.22996310622503	-727.1848731798336	-52.84092514798318	-0.03948909602881748	1.056888752930078	-0.02053424798610885	1.764999831880028	-5.586289765086155	-0.5735469111664951	-2.042976725525073	0.02033233367017192	-5.502341010642442	-5.502341010643426	-0.07408010694877531	0.04235446480329671	-1.283517441806607	-1.068878845028757	-1.704874521335434e-08	-2.529524536329495e-08	3.078767794073827e-07	4.700137371348921e-08	-6.135965634026347e-08	2.061399934784779e-07	-5.270986784563343e-08
1.07	-0.4433166223372032	-0.0512827974645231	0.5975593396562821	1.757281752759953	-0.2739414549796726	0.2185824940763786	-0.4363308631213762	1.411605632172262	1.411605632172169	-0.1743221416678808	0.1745175177934849	0.3143584317904175	0.04822007938512042	0.0623013649869135	-0.001587031286474043	0.119916091985604	-0.3716891576064944	-0.03828588308772723	-0.1416803053582393	0.0001215601226489928	-0.3743397826505851	-0.3743397826505692	-0.0008414404648716773	0.0004604391302410353	-0.0855405324096626	-0.07172385704416577	-0.3289449698607695	0.01043074459553207	-0.01320639128850235	-0.3662267631268548	0.04552739978448603	0.01589753571128347	0.2947865341427268	-31.37332648830733	0.01091375472507803	-2.02839213175983	16.9141886200741	-726.9451934917033	-52.82240927479803	-0.03955267223488162	1.038547008186354	-0.008802255409992389	1.751974885683013	-5.551513581327793	-0.526830076464442	-2.074982782373078	0.09536268349619174	-5.47609518895495	-5.476095188952108	0.02268338850398712	-0.00705294486554789	-1.267794681442484	-0.993746400451082	-1.921545159323872e-08	-2.238309071495721e-08	3.601240906357942e-07	5.558094644077436e-08	-7.066112835991735e-08	2.443099289706214e-07	-6.091547557913931e-08
1.08	-0.4426416171070951	-0.05129889261985657	0.5988459583975845	1.753287324214341	-0.2743507011315214	0.2170633235191616	-0.4363240690366872	1.407588519487354	1.407588519487357	-0.1743309039894607	0.1745218314960438	0.3134395759460925	0.04745316932612009	0.07268758681250277	-0.001611553250414047	0.1373898748757619	-0.4271656410478822	-0.04352626242186418	-0.1621110020374873	0.001340299555644122	-0.4290564902531119	-0.4290564902530762	-0.0009042805379456786	0.000364913887560104	-0.09822063067899175	-0.08159441911684963	-0.3289075065709346	0.01061368225722001	-0.0133960821889056	-0.3653971064870941	0.04585637292224314	0.01613847715335661	0.2949760106092798	-31.2387823063065	-0.1505121039176399	-1.964703025070228	16.65114167451074	-726.816700956652	-52.75500760026308	-0.03960998860625056	1.042395775629306	0.00409148771292635	1.743548042921282	-5.549192248825815	-0.5294723000830909	-1.991990096327567	0.1439836370589851	-5.470725724406985	-5.470725724406999	-0.06619106053387927	-0.003170453497975401	-1.271455582692341	-0.9927164257280786	-2.386204487688572e-08	-3.846255275074449e-08	4.055735728305431e-07	6.05369992318229e-08	-7.98744257677476e-08	2.660385852043929e-07	-7.017259584368754e-08
